<svg xmlns="http://www.w3.org/2000/svg" xmlns:xlink="http://www.w3.org/1999/xlink" style="isolation:isolate" viewBox="0 0 128 128" width="128px" height="128px"><defs><clipPath id="_clipPath_IdIyoaeYiac7f7aiPnrAGJSSFnQD0RcD"><rect width="128" height="128"/></clipPath></defs><g clip-path="url(#_clipPath_IdIyoaeYiac7f7aiPnrAGJSSFnQD0RcD)"><g><path d=" M 65.835 76.24 C 66.283 75.419 65.984 74.449 65.238 74.001 C 64.417 73.553 63.447 73.851 62.999 74.598 C 62.551 75.419 61.133 75.493 60.611 74.598 C 60.163 73.777 59.193 73.553 58.372 74.001 C 57.551 74.449 57.327 75.419 57.775 76.24 C 58.596 77.732 60.163 78.628 61.805 78.628 C 63.521 78.628 65.014 77.732 65.835 76.24 Z " fill="rgb(0,0,0)"/><path d=" M 76.059 74.001 C 75.238 73.553 74.268 73.851 73.82 74.598 C 73.372 75.419 71.954 75.493 71.432 74.598 C 70.984 73.777 70.014 73.553 69.193 74.001 C 68.372 74.449 68.148 75.419 68.596 76.24 C 69.417 77.732 70.984 78.628 72.626 78.628 C 74.268 78.628 75.835 77.732 76.656 76.24 C 77.103 75.493 76.805 74.449 76.059 74.001 Z " fill="rgb(0,0,0)"/><path d=" M 49.044 44.001 C 49.044 40.717 47.402 37.732 44.641 35.941 C 43.596 31.687 39.79 28.702 35.387 28.702 C 34.193 28.702 33.074 28.926 31.954 29.299 C 30.835 28.851 29.715 28.702 28.521 28.702 C 24.044 28.702 20.312 31.687 19.268 35.941 C 16.506 37.732 14.865 40.717 14.865 44.001 C 14.865 47.284 16.506 50.269 19.268 52.06 C 20.312 56.314 24.118 59.299 28.521 59.299 C 29.715 59.299 30.835 59.075 31.954 58.702 C 33.074 59.15 34.193 59.299 35.387 59.299 C 39.865 59.299 43.596 56.314 44.641 52.06 C 47.327 50.269 49.044 47.284 49.044 44.001 Z  M 42.178 49.225 C 41.656 49.523 41.283 49.971 41.208 50.568 C 40.76 53.404 38.297 55.568 35.387 55.568 C 34.491 55.568 33.596 55.344 32.775 54.971 C 32.551 54.822 32.253 54.747 31.954 54.747 C 31.656 54.747 31.432 54.822 31.133 54.971 C 30.312 55.344 29.417 55.568 28.521 55.568 C 25.611 55.568 23.148 53.404 22.7 50.568 C 22.626 49.971 22.253 49.523 21.73 49.225 C 19.79 48.18 18.521 46.165 18.521 44.001 C 18.521 41.837 19.715 39.747 21.73 38.777 C 22.253 38.478 22.626 38.031 22.7 37.434 C 23.148 34.598 25.611 32.434 28.521 32.434 C 29.417 32.434 30.312 32.657 31.133 33.031 C 31.656 33.254 32.253 33.254 32.775 33.031 C 33.596 32.657 34.491 32.434 35.387 32.434 C 38.297 32.434 40.76 34.598 41.208 37.434 C 41.283 38.031 41.656 38.478 42.178 38.777 C 44.118 39.822 45.387 41.837 45.387 44.001 C 45.387 46.165 44.118 48.254 42.178 49.225 Z " fill="rgb(0,0,0)"/><g><path d=" M 52.103 64.896 C 52.103 63.702 51.133 62.732 49.939 62.732 C 48.745 62.732 47.775 63.702 47.775 64.896 C 47.775 66.09 48.745 67.06 49.939 67.06 C 51.133 67.06 52.103 66.09 52.103 64.896 Z " fill="rgb(0,0,0)"/><path d=" M 44.491 58.329 C 43.148 58.329 42.103 59.374 42.103 60.717 C 42.103 62.06 43.148 63.105 44.491 63.105 C 45.835 63.105 46.88 62.06 46.88 60.717 C 46.88 59.374 45.835 58.329 44.491 58.329 Z " fill="rgb(0,0,0)"/></g><g><path d=" M 82.477 64.896 C 82.477 63.702 83.447 62.732 84.641 62.732 C 85.835 62.732 86.805 63.702 86.805 64.896 C 86.805 66.09 85.835 67.06 84.641 67.06 C 83.447 67.06 82.477 66.09 82.477 64.896 Z " fill="rgb(0,0,0)"/><path d=" M 90.088 58.329 C 91.432 58.329 92.477 59.374 92.477 60.717 C 92.477 62.06 91.432 63.105 90.088 63.105 C 88.745 63.105 87.7 62.06 87.7 60.717 C 87.7 59.374 88.745 58.329 90.088 58.329 Z " fill="rgb(0,0,0)"/></g><path d=" M 67.178 62.135 C 56.954 62.135 48.596 70.493 48.596 80.717 C 48.596 90.941 56.954 99.299 67.178 99.299 C 77.402 99.299 85.76 90.941 85.76 80.717 C 85.76 70.493 77.402 62.135 67.178 62.135 Z  M 67.178 95.643 C 58.969 95.643 52.253 88.926 52.253 80.717 C 52.253 72.508 58.969 65.792 67.178 65.792 C 75.387 65.792 82.103 72.508 82.103 80.717 C 82.103 88.926 75.387 95.643 67.178 95.643 Z " fill="rgb(0,0,0)"/><path d=" M 73.521 83.404 C 72.626 82.881 71.506 83.18 71.059 84.075 C 70.312 85.419 68.82 86.314 67.253 86.314 C 65.685 86.314 64.268 85.493 63.447 84.075 C 62.924 83.18 61.805 82.881 60.984 83.404 C 60.088 83.926 59.79 85.046 60.312 85.866 C 61.73 88.404 64.417 89.896 67.253 89.896 C 70.163 89.896 72.85 88.329 74.268 85.866 C 74.715 85.046 74.342 83.926 73.521 83.404 Z " fill="rgb(0,0,0)"/><path d=" M 24.79 41.687 C 23.521 41.687 22.402 42.732 22.402 44.075 C 22.402 45.344 23.447 46.463 24.79 46.463 C 26.059 46.463 27.178 45.419 27.178 44.075 C 27.103 42.732 26.059 41.687 24.79 41.687 Z " fill="rgb(0,0,0)"/><circle vector-effect="non-scaling-stroke" cx="31.954144558904105" cy="44.000746268656705" r="2.388059701492537" fill="rgb(0,0,0)"/><path d=" M 39.118 41.687 C 37.85 41.687 36.73 42.732 36.73 44.075 C 36.73 45.344 37.775 46.463 39.118 46.463 C 40.387 46.463 41.506 45.419 41.506 44.075 C 41.506 42.732 40.387 41.687 39.118 41.687 Z " fill="rgb(0,0,0)"/><path d=" M 104.43 55.031 C 105.333 55.031 106.181 54.681 106.818 54.043 C 107.177 53.682 107.177 53.099 106.817 52.739 C 106.458 52.38 105.873 52.379 105.513 52.74 C 105.224 53.03 104.84 53.188 104.43 53.188 C 104.02 53.188 103.634 53.029 103.343 52.738 C 102.983 52.378 102.4 52.378 102.04 52.738 C 101.68 53.099 101.68 53.682 102.04 54.042 C 102.678 54.68 103.527 55.032 104.429 55.032 C 104.43 55.031 104.43 55.031 104.43 55.031 Z  M 108.109 55.333 C 107.126 56.316 105.82 56.857 104.43 56.857 L 104.429 56.857 C 103.039 56.857 101.733 56.316 100.75 55.332 C 100.39 54.972 99.807 54.972 99.447 55.332 C 99.086 55.692 99.086 56.275 99.446 56.635 C 100.777 57.968 102.547 58.701 104.429 58.701 L 104.43 58.701 C 106.312 58.701 108.081 57.968 109.412 56.637 C 109.772 56.276 109.772 55.693 109.412 55.333 C 109.052 54.973 108.469 54.973 108.109 55.333 Z  M 112.969 46.855 L 111.521 43.867 L 111.521 39.676 C 111.521 36.628 109.584 34.031 106.878 33.031 C 107.137 32.601 107.295 32.102 107.295 31.565 C 107.295 29.985 106.01 28.701 104.43 28.701 C 102.851 28.701 101.566 29.985 101.566 31.565 C 101.566 32.102 101.724 32.601 101.983 33.03 C 99.278 34.03 97.34 36.628 97.34 39.676 L 97.34 43.867 L 95.831 46.979 C 95.692 47.265 95.71 47.601 95.879 47.869 C 96.047 48.139 96.342 48.303 96.66 48.303 L 100.564 48.303 C 100.981 50.053 102.554 51.36 104.43 51.36 C 106.307 51.36 107.88 50.053 108.298 48.303 L 112.201 48.303 C 112.206 48.303 112.211 48.303 112.214 48.303 C 112.723 48.303 113.135 47.89 113.135 47.381 C 113.134 47.185 113.073 47.004 112.969 46.855 Z  M 104.43 30.544 C 104.993 30.544 105.451 31.001 105.451 31.564 C 105.451 32.127 104.993 32.585 104.43 32.585 C 103.867 32.585 103.409 32.127 103.409 31.564 C 103.409 31.001 103.867 30.544 104.43 30.544 Z  M 99.183 39.676 C 99.183 36.783 101.537 34.429 104.429 34.429 C 107.322 34.429 109.677 36.783 109.677 39.676 L 109.677 43.156 L 99.183 43.156 L 99.183 39.676 Z  M 104.429 49.516 C 103.583 49.516 102.857 49.018 102.512 48.303 L 106.347 48.303 C 106.002 49.018 105.275 49.516 104.429 49.516 Z  M 98.131 46.459 L 98.838 45 L 110.022 45 L 110.728 46.459 L 98.131 46.459 Z " fill="rgb(0,0,0)"/></g></g></svg>